HIERARCHY
ROOT Hips
{
  OFFSET 0 89.5177 0.535
  CHANNELS 6 Xposition Yposition Zposition Zrotation Xrotation Yrotation
  JOINT Spine
  {
    OFFSET 12.0259 -0.162855 1.69034e-005
    CHANNELS 3 Zrotation Xrotation Yrotation
    JOINT Spine1
    {
      OFFSET 15.3169 -0.0121922 0
      CHANNELS 3 Zrotation Xrotation Yrotation
      JOINT Spine2
      {
        OFFSET 15.3176 -0.0121908 0
        CHANNELS 3 Zrotation Xrotation Yrotation
        JOINT Neck
        {
          OFFSET 19.9142 1.56338 0
          CHANNELS 3 Zrotation Xrotation Yrotation
          JOINT Head
          {
            OFFSET 6.92651 0 0
            CHANNELS 3 Zrotation Xrotation Yrotation
            End Site
            {
              OFFSET 20.7666 0 0
            }
          }
          JOINT LeftShoulder
          {
            OFFSET -6.20654 0.708824 7.28219
            CHANNELS 3 Zrotation Xrotation Yrotation
            JOINT LeftArm
            {
              OFFSET 14.108 0 -1.52588e-005
              CHANNELS 3 Zrotation Xrotation Yrotation
              JOINT LeftForeArm
              {
                OFFSET 28.5802 0 0
                CHANNELS 3 Zrotation Xrotation Yrotation
                JOINT LeftHand
                {
                  OFFSET 27.092 0 0
                  CHANNELS 3 Zrotation Xrotation Yrotation
                  End Site
                  {
                    OFFSET 9.55928 -0.186424 0.145352
                  }
                }
              }
            }
          }
          JOINT RightShoulder
          {
            OFFSET -6.20654 0.708866 -7.28218
            CHANNELS 3 Zrotation Xrotation Yrotation
            JOINT RightArm
            {
              OFFSET 14.108 0 1.52588e-005
              CHANNELS 3 Zrotation Xrotation Yrotation
              JOINT RightForeArm
              {
                OFFSET 28.5802 0 0
                CHANNELS 3 Zrotation Xrotation Yrotation
                JOINT RightHand
                {
                  OFFSET 27.092 0 0
                  CHANNELS 3 Zrotation Xrotation Yrotation
                  End Site
                  {
                    OFFSET 9.55929 -0.186417 -0.145354
                  }
                }
              }
            }
          }
        }
      }
    }
  }
  JOINT LeftUpLeg
  {
    OFFSET 0.005 -0.535 8.837
    CHANNELS 3 Zrotation Xrotation Yrotation
    JOINT LeftLeg
    {
      OFFSET 39.9035 0 0
      CHANNELS 3 Zrotation Xrotation Yrotation
      JOINT LeftFoot
      {
        OFFSET 39.6689 0 0
        CHANNELS 3 Zrotation Xrotation Yrotation
        JOINT LeftToe
        {
          OFFSET 10.1624 13.6296 0
          CHANNELS 3 Zrotation Xrotation Yrotation
          End Site
          {
            OFFSET 8.38147 0 0
          }
        }
      }
    }
  }
  JOINT RightUpLeg
  {
    OFFSET 0.005 -0.535 -8.837
    CHANNELS 3 Zrotation Xrotation Yrotation
    JOINT RightLeg
    {
      OFFSET 39.9035 0 0
      CHANNELS 3 Zrotation Xrotation Yrotation
      JOINT RightFoot
      {
        OFFSET 39.6689 0 0
        CHANNELS 3 Zrotation Xrotation Yrotation
        JOINT RightToe
        {
          OFFSET 10.1624 13.6296 0
          CHANNELS 3 Zrotation Xrotation Yrotation
          End Site
          {
            OFFSET 8.38147 0 0
          }
        }
      }
    }
  }
}
MOTION
Frames:	11
Frame Time:	0.0333333
519.242 83.9555 -218.313 108.828 44.8809 -10.9071 0.424254 0.116525 -1.26373 0.850982 0.224133 -2.52813 0.850982 0.224133 -2.52813 -8.30271e-012 -9.0191e-006 -5.27751e-005 -0.750321 4.13837 -2.78124 179.652 1.37504 -75.7898 -23.008 21.1689 65.9064 -94.3679 0 -1.59028e-015 -80.2088 -46.7626 -81.9681 -179.001 3.27006 73.0088 -17.2897 -22.0836 -70.396 -99.0494 0 -3.18055e-015 -76.7442 34.1856 71.2419 -27.2224 9.77874 -173.445 -37.9343 6.36111e-015 6.36111e-015 24.1844 4.88847 -6.54064 90 -1.81993e-020 -9.54166e-015 -25.7513 -9.80391 162.931 -36.2552 0 -0 24.2085 -0.480389 10.4682 90 0 -6.36111e-015 
518.693 83.6473 -219.029 108.186 41.5872 -9.78182 0.631146 -0.268222 -1.26411 1.25625 -0.549813 -2.52506 1.25625 -0.549813 -2.52507 -8.30748e-012 -9.0191e-006 -5.27751e-005 -0.532036 8.57223 -3.11109 179.787 0.828856 -75.5874 -28.6396 20.7315 65.1025 -91.1062 -3.97569e-016 -7.95139e-016 -80.0652 -48.3431 -81.4015 -178.841 3.90691 73.4647 -14.8967 -25.103 -69.9303 -104.094 1.59028e-015 -6.36111e-015 -76.1978 32.3295 69.1018 -27.3734 11.4888 -172.113 -38.5847 0 3.18055e-015 24.892 3.83558 -7.33346 90 0 -0 -30.1691 -10.3806 161.365 -37.8888 3.18056e-015 -0 21.5591 0.119637 12.0569 90 -4.96962e-017 3.18055e-015 
518.235 83.2308 -219.941 107.957 37.6011 -8.96222 0.780339 -0.63297 -1.27633 1.54654 -1.28264 -2.54399 1.54654 -1.28264 -2.544 -8.30748e-012 -9.0191e-006 -5.27751e-005 -0.314506 13.328 -3.21292 179.665 1.28724 -75.4019 -31.7753 20.6286 64.4683 -88.9192 -6.95746e-016 -7.95139e-016 -79.652 -47.3779 -80.1996 -178.681 4.52143 73.7244 -14.6075 -26.8125 -70.1687 -109.658 0 6.36111e-015 -75.397 30.5525 65.7047 -27.7771 12.1844 -170.82 -39.5251 6.36111e-015 -0 25.8474 1.67644 -8.17772 90 -1.81993e-020 -1.27222e-014 -34.8803 -10.3721 161.102 -40.2713 -6.36111e-015 -3.18056e-015 20.009 -0.708277 11.9728 90 0 3.18055e-015 
517.997 82.5851 -220.899 107.927 32.7329 -8.58851 1.00239 -0.867697 -1.11039 1.98812 -1.75405 -2.20565 1.98812 -1.75405 -2.20566 -8.31066e-012 -9.0191e-006 -5.27751e-005 -0.68514 18.7318 -4.19636 179.483 1.99825 -75.4856 -32.1833 20.069 64.9433 -87.7303 7.95139e-016 -1.59028e-015 -77.8104 -46.8702 -76.6235 -178.633 4.85876 74.2654 -16.051 -27.2166 -70.9605 -115.343 0 3.18055e-015 -73.7274 28.67 59.9138 -29.1029 12.9586 -168.916 -41.7443 6.36111e-015 1.59028e-015 27.4232 -0.811361 -8.83551 90 3.10601e-018 3.18055e-015 -39.8094 -10.6931 162.101 -43.4103 -4.77083e-015 -3.18056e-015 19.3551 -2.46365 10.6046 90 1.21329e-020 3.18055e-015 
518.061 81.6774 -221.61 108.086 27.7519 -8.02403 1.34995 -0.838696 -0.844709 2.68784 -1.6965 -1.66954 2.68784 -1.6965 -1.66955 -8.31066e-012 -9.0191e-006 -5.27751e-005 -1.91131 22.8666 -5.43214 179.684 1.20427 -75.282 -33.2411 19.0779 65.8603 -87.8089 -1.59028e-015 -6.36111e-015 -73.9337 -45.8257 -71.4143 -178.76 4.4312 74.3522 -18.1615 -26.6623 -71.4184 -120.607 -1.59028e-015 -9.54166e-015 -70.8303 26.7383 51.2349 -33.1719 13.9763 -167.805 -49.1605 3.18055e-015 4.77083e-015 31.6222 -3.3924 1.12626 90 0 -0 -46.5287 -14.4604 161.284 -46.8527 0 -4.77083e-015 17.6346 -3.20452 8.42757 90 0 -1.59028e-015 
518.51 80.4575 -221.919 108.691 23.0857 -6.36741 1.6679 -0.323768 -0.739156 3.33157 -0.668411 -1.46846 3.33157 -0.668411 -1.46847 -8.30748e-012 -9.0191e-006 -5.27751e-005 -3.37148 24.7048 -7.33368 179.927 0.275873 -75.219 -35.0155 18.956 66.9047 -88.9701 -2.78299e-015 -0 -70.7875 -46.8246 -68.9427 -179.045 3.26368 73.6763 -19.5724 -25.0887 -70.8388 -123.185 -3.97569e-016 9.54166e-015 -68.9296 23.874 43.0328 -38.4339 13.0334 -167.942 -58.6787 -3.18055e-015 1.59028e-015 32.512 -5.95427 6.85622 90 1.59028e-015 -3.18055e-015 -55.2284 -19.8965 157.004 -50.7762 1.59028e-015 -0 15.7876 -1.71052 5.57524 90 -2.42657e-020 -0 
519.334 78.6978 -221.739 110.06 19.212 -3.29786 1.91926 0.483695 -0.877038 3.8459 0.938166 -1.76973 3.8459 0.938166 -1.76974 -8.30589e-012 -9.0191e-006 -5.27751e-005 -4.72391 25.4404 -10.1539 179.893 0.408197 -75.2664 -36.062 20.1734 67.8293 -90.54 3.57812e-015 3.18055e-015 -63.7359 -47.0726 -59.8862 -179.354 2.14833 73.2583 -20.4817 -21.6631 -68.6875 -121.072 4.37326e-015 -0 -65.8706 22.313 36.4751 -44.9836 9.18519 -170.271 -69.7232 -3.18055e-015 3.18055e-015 29.244 -6.36673 4.43682 90 7.95139e-016 6.36111e-015 -65.0573 -21.2543 151.069 -56.1255 0 -1.59028e-015 15.6172 -1.2376 3.35804 90 2.42657e-020 1.59028e-015 
520.221 76.4521 -221.212 112.067 16.2818 -0.466902 2.13783 1.36372 -0.958446 4.29997 2.691 -1.9678 4.29997 2.691 -1.96781 -8.31782e-012 -9.0191e-006 -5.27751e-005 -5.59089 25.5429 -13.5918 179.743 0.927656 -74.5423 -36.8798 23.1657 67.3889 -92.7748 3.97569e-015 6.36111e-015 -57.4843 -46.7128 -50.8467 -179.919 0.267952 73.1808 -18.4018 -16.5042 -64.3438 -113.965 3.57812e-015 -3.18055e-015 -64.1364 21.0548 33.3128 -52.2067 4.01969 -172.516 -77.9469 3.18055e-015 -3.18055e-015 23.2837 0.0276482 -8.6794 90 0 -3.18055e-015 -74.5466 -19.1648 147.155 -61.633 0 3.97569e-015 15.5109 -3.43204 1.42942 90 1.21329e-020 3.18055e-015 
521.05 73.99 -220.466 113.846 13.2319 2.11355 2.42122 2.25924 -1.01904 4.88788 4.47346 -2.13506 4.88788 4.47346 -2.13507 -8.30828e-012 -9.0191e-006 -5.27751e-005 -6.37949 26.0512 -17.2119 179.64 1.18322 -73.0637 -36.3124 27.1281 65.5804 -95.7075 -1.59028e-015 -6.36111e-015 -53.758 -47.5088 -45.6974 179.495 -1.77311 74.0957 -14.4011 -6.98789 -59.7198 -97.9396 7.95139e-015 -3.18055e-015 -63.3898 19.3786 29.763 -58.086 -0.378142 -174.834 -83.4598 -3.18055e-015 1.19271e-015 23.3783 4.78878 -10.9508 90 7.95139e-016 -7.95139e-015 -81.1216 -14.5786 146.815 -67.0148 6.36111e-015 2.38542e-015 15.7857 -4.7501 0.620572 90 -1.21329e-020 -3.18055e-015 
521.733 71.6544 -219.587 115.359 9.92884 3.98264 2.73996 3.02519 -1.0882 5.54846 5.99468 -2.32484 5.54846 5.99468 -2.32485 -8.29277e-012 -9.0191e-006 -5.27751e-005 -7.48374 27.6868 -19.189 179.557 1.37091 -72.0896 -33.7584 29.9976 63.3484 -98.1668 1.59028e-015 6.36111e-015 -49.4146 -49.9254 -41.0036 179.075 -3.60158 75.5825 -13.2295 8.96563 -55.5764 -69.2784 0 -3.18055e-015 -60.5231 20.1026 28.6088 -63.7731 -5.63497 -173.99 -88.0265 -3.18055e-015 7.95139e-016 21.6442 1.90119 -12.967 90 -5.96354e-016 -0 -85.5028 -9.90439 148.96 -71.485 0 -1.59028e-015 16.025 -4.75264 0.639998 90 -1.21329e-020 -6.36111e-015 
522.325 69.5223 -218.4 116.753 7.79178 4.89579 2.84087 3.42842 -0.917206 5.75173 6.80703 -2.00905 5.75173 6.80703 -2.00906 -8.30867e-012 -9.0191e-006 -5.27751e-005 -5.89461 29.4609 -21.386 179.561 1.3039 -71.4064 -30.704 31.7134 61.83 -99.8806 -1.59028e-015 -3.18055e-015 -45.8722 -52.8341 -37.4442 178.207 -7.13214 75.8465 -13.6274 30.0151 -48.537 -31.495 3.18055e-015 4.77083e-015 -47.4289 22.5134 23.449 -66.9254 -11.3806 -173.401 -89.3154 -1.59028e-015 6.36111e-015 24.8797 -2.83847 -6.72134 90 1.59028e-015 1.59028e-015 -89.3598 -6.49364 150.289 -75.0332 6.36111e-015 -7.95139e-016 15.9871 -4.84128 1.22534 90 0 3.18055e-015 
